<svg width="200" height="200" fill="none" xmlns="http://www.w3.org/2000/svg"><circle cx="100" cy="100" r="100" fill="#2A9556"/><path d="M42.142 96.04v-6.478H25v6.478h3.208v-3.27h3.759v14.422h-3.27v3.209h9.747v-3.209h-3.269V92.77h3.758v3.27h3.209zm5.838-1.773c0-.825.672-1.527 1.528-1.527h3.82a2.693 2.693 0 012.688 2.689c0 1.466-1.222 2.688-2.72 2.688h-4.98c-.214-1.344-.336-2.627-.336-3.85zm1.13 7.059h3.3c.276.336.642.886 1.162 1.589.519.702.916 1.191 1.16 1.527.276.337.642.764 1.1 1.345.459.58.856 1.008 1.162 1.283.642.52 1.742 1.559 2.689 1.956a13.527 13.527 0 005.805 1.375v-3.056c-3.575 0-6.783-2.2-9.625-6.6 1.956-.855 3.361-2.994 3.361-5.317 0-1.619-.58-3.025-1.741-4.155-1.13-1.161-2.536-1.742-4.156-1.742h-3.82c-1.313 0-2.444.459-3.36 1.406-.917.947-1.375 2.047-1.375 3.33 0 5.837 2.016 11.428 6.08 16.775l2.567-1.894c-2.047-2.75-3.483-5.347-4.308-7.822zm38.482-1.376c0-2.871-1.07-5.408-3.208-7.638-2.109-2.23-4.584-3.33-7.395-3.33-2.78 0-5.255 1.1-7.394 3.33-2.108 2.23-3.178 4.736-3.178 7.578 0 2.964 1.039 5.561 3.147 7.73 2.109 2.17 4.584 3.27 7.425 3.27 2.842 0 5.317-1.1 7.425-3.27 2.109-2.169 3.178-4.736 3.178-7.67zm-3.208 0c0 2.017-.734 3.82-2.23 5.379-1.468 1.558-3.179 2.352-5.165 2.352-1.986 0-3.697-.794-5.164-2.352-1.466-1.559-2.2-3.362-2.2-5.378 0-2.017.734-3.82 2.2-5.378 1.467-1.589 3.178-2.383 5.164-2.383 1.986 0 3.697.794 5.164 2.352 1.497 1.559 2.23 3.361 2.23 5.409zm14.389 3.484c2.598 0 4.675-.764 6.234-2.261 1.589-1.497 2.383-3.3 2.383-5.347 0-1.956-.672-3.575-1.986-4.89-1.314-1.313-2.995-1.955-5.011-1.955-1.59 0-3.056.306-4.37.886-1.314.581-2.872 1.65-4.675 3.209l2.078 2.444c1.436-1.253 2.628-2.108 3.606-2.566a7.99 7.99 0 013.208-.764c2.444 0 3.942 1.405 3.942 3.636 0 1.13-.459 2.17-1.375 3.055-.917.886-2.261 1.345-4.034 1.345-2.72 0-4.186-1.161-5.683-3.33l-.672.427c-.459.306-.886.611-1.345.917l-.702.427c1.863 3.209 2.2 7.12.947 11.734h3.3c.397-1.559.641-2.903.672-4.003.03-1.131-.03-2.383-.245-3.758a9.184 9.184 0 003.728.794zm15.047-13.872h-3.208V110.4h3.208V89.56zm3.235 10.419c-.061 2.964 1.009 5.531 3.239 7.761 2.231 2.231 4.828 3.27 7.731 3.178 1.497 0 3.361-.489 5.653-1.436l-1.223-2.964c-1.925.795-3.422 1.192-4.43 1.192-2.047.092-3.881-.672-5.47-2.231-1.558-1.589-2.322-3.422-2.291-5.5-.092-2.047.672-3.88 2.23-5.439 1.589-1.588 3.422-2.352 5.5-2.322 1.07 0 2.567.397 4.461 1.192l1.223-2.964c-2.292-.947-4.187-1.436-5.684-1.436-2.964-.061-5.53 1.039-7.761 3.27-2.23 2.23-3.269 4.797-3.178 7.7zm28.719-10.419h-3.88l-7.578 20.839h3.422l1.65-4.584h8.892l1.68 4.584h3.392l-7.578-20.84zm-5.225 13.047l3.27-8.983 3.269 8.983h-6.539zm18.508 4.583v-17.63h-3.209V110.4h10.695v-3.209h-7.486zm15.371 1.956c-1.375-1.894-2.077-3.483-2.077-4.767 0-1.283.366-2.444 1.13-3.483 1.192-1.62 1.772-3.392 1.772-5.347 0-2.078-.733-3.942-2.719-6.661l-2.567 1.894c1.375 1.894 2.078 3.483 2.078 4.767 0 1.252-.397 2.414-1.161 3.453-1.161 1.588-1.742 3.391-1.742 5.377 0 2.017.917 4.248 2.72 6.661l2.566-1.894z" fill="#fff"/></svg>