<svg width="217" height="32" fill="none" xmlns="http://www.w3.org/2000/svg"><path d="M24.684 10.32V.992H0v9.328h4.62V5.612h5.412V26.38H5.324V31H19.36v-4.62h-4.708V5.612h5.412v4.708h4.62zm8.407-2.552c0-1.188.968-2.2 2.2-2.2h5.5a3.878 3.878 0 013.872 3.872c0 2.112-1.76 3.872-3.916 3.872h-7.172c-.308-1.936-.484-3.784-.484-5.544zm1.628 10.164h4.752c.396.484.924 1.276 1.672 2.288.748 1.012 1.32 1.716 1.672 2.2.396.484.924 1.1 1.584 1.936.66.836 1.232 1.452 1.672 1.848.924.748 2.508 2.244 3.872 2.816a19.475 19.475 0 008.36 1.98v-4.4c-5.148 0-9.768-3.168-13.86-9.504 2.816-1.232 4.84-4.312 4.84-7.656 0-2.332-.836-4.356-2.508-5.984C45.147 1.784 43.123.948 40.791.948h-5.5c-1.892 0-3.52.66-4.84 2.024-1.32 1.364-1.98 2.948-1.98 4.796 0 8.404 2.904 16.456 8.756 24.156l3.696-2.728c-2.948-3.96-5.016-7.7-6.204-11.264zm55.414-1.98c0-4.136-1.54-7.788-4.62-11C82.477 1.74 78.913.156 74.865.156c-4.004 0-7.568 1.584-10.648 4.796-3.036 3.212-4.576 6.82-4.576 10.912 0 4.268 1.496 8.008 4.532 11.132 3.036 3.124 6.6 4.708 10.692 4.708 4.092 0 7.656-1.584 10.692-4.708 3.036-3.124 4.576-6.82 4.576-11.044zm-4.62 0c0 2.904-1.056 5.5-3.212 7.744-2.112 2.244-4.576 3.388-7.436 3.388-2.86 0-5.324-1.144-7.436-3.388-2.112-2.244-3.168-4.84-3.168-7.744s1.056-5.5 3.168-7.744c2.112-2.288 4.576-3.432 7.436-3.432 2.86 0 5.324 1.144 7.436 3.388 2.156 2.244 3.212 4.84 3.212 7.788zm20.721 5.016c3.74 0 6.732-1.1 8.976-3.256 2.288-2.156 3.432-4.752 3.432-7.7 0-2.816-.968-5.148-2.86-7.04C113.89 1.08 111.47.156 108.566.156c-2.288 0-4.4.44-6.292 1.276-1.892.836-4.136 2.376-6.733 4.62l2.993 3.52c2.068-1.804 3.784-3.036 5.192-3.696a11.504 11.504 0 014.62-1.1c3.52 0 5.676 2.024 5.676 5.236 0 1.628-.66 3.124-1.98 4.4-1.32 1.276-3.256 1.936-5.808 1.936-3.916 0-6.028-1.672-8.184-4.796l-.968.616c-.66.44-1.276.88-1.936 1.32l-1.013.616c2.684 4.62 3.169 10.252 1.365 16.896h4.752c.572-2.244.924-4.18.968-5.764a29.836 29.836 0 00-.352-5.412c1.716.748 3.476 1.144 5.368 1.144zM127.901.992h-4.62V31h4.62V.992zm4.659 15.004c-.088 4.268 1.452 7.964 4.664 11.176 3.212 3.212 6.952 4.708 11.132 4.576 2.156 0 4.84-.704 8.14-2.068l-1.76-4.268c-2.772 1.144-4.928 1.716-6.38 1.716-2.948.132-5.588-.968-7.876-3.212-2.244-2.288-3.344-4.928-3.3-7.92-.132-2.948.968-5.588 3.212-7.832 2.288-2.288 4.928-3.388 7.92-3.344 1.54 0 3.696.572 6.424 1.716l1.76-4.268C153.196.904 150.468.2 148.312.2c-4.268-.088-7.964 1.496-11.176 4.708-3.212 3.212-4.708 6.908-4.576 11.088zM173.915.992h-5.588L157.415 31h4.928l2.376-6.6h12.804l2.42 6.6h4.884L173.915.992zm-7.524 18.788l4.708-12.936 4.708 12.936h-9.416zm26.65 6.6V.992h-4.62V31h15.4v-4.62h-10.78zm22.136 2.816c-1.98-2.728-2.992-5.016-2.992-6.864 0-1.848.528-3.52 1.628-5.016 1.716-2.332 2.552-4.884 2.552-7.7 0-2.992-1.056-5.676-3.916-9.592l-3.696 2.728c1.98 2.728 2.992 5.016 2.992 6.864 0 1.804-.572 3.476-1.672 4.972-1.672 2.288-2.508 4.884-2.508 7.744 0 2.904 1.32 6.116 3.916 9.592l3.696-2.728z" fill="#fff"/></svg>